<?xml version="1.0" encoding="UTF-8"?>
<!DOCTYPE svg PUBLIC "-//W3C//DTD SVG 1.1//EN" "http://www.w3.org/Graphics/SVG/1.1/DTD/svg11.dtd">
<svg xmlns="http://www.w3.org/2000/svg" version="1.1" width="3669px" height="466px" style="shape-rendering:geometricPrecision; text-rendering:geometricPrecision; image-rendering:optimizeQuality; fill-rule:evenodd; clip-rule:evenodd" xmlns:xlink="http://www.w3.org/1999/xlink">
<g><path style="opacity:0.986" fill="#4DA88A" d="M 618.5,-0.5 C 630.167,-0.5 641.833,-0.5 653.5,-0.5C 683.752,3.62217 711.419,14.4555 736.5,32C 738.007,32.8373 738.507,34.0039 738,35.5C 724.974,53.5652 711.474,71.2318 697.5,88.5C 673.847,71.17 647.513,64.67 618.5,69C 594.359,75.8059 577.859,90.9726 569,114.5C 567.296,120.722 566.463,127.055 566.5,133.5C 612.5,133.5 658.5,133.5 704.5,133.5C 704.5,156.5 704.5,179.5 704.5,202.5C 657.833,202.5 611.167,202.5 564.5,202.5C 564.864,286.5 565.198,370.5 565.5,454.5C 542.829,454.421 520.162,454.087 497.5,453.5C 496.854,369.835 496.52,286.168 496.5,202.5C 460.833,202.5 425.167,202.5 389.5,202.5C 389.5,179.5 389.5,156.5 389.5,133.5C 425.506,133.833 461.506,133.5 497.5,132.5C 498.068,106.298 505.568,82.2983 520,60.5C 543.34,25.0687 576.174,4.73532 618.5,-0.5 Z"/></g>
<g><path style="opacity:0.985" fill="#4DA88A" d="M 1365.5,-0.5 C 1388.17,-0.5 1410.83,-0.5 1433.5,-0.5C 1433.7,44.1729 1433.37,88.8396 1432.5,133.5C 1456.5,133.5 1480.5,133.5 1504.5,133.5C 1504.5,156.167 1504.5,178.833 1504.5,201.5C 1480.5,201.5 1456.5,201.5 1432.5,201.5C 1432.39,245.173 1432.89,288.84 1434,332.5C 1442.14,360.311 1460.31,377.478 1488.5,384C 1497.42,385.74 1506.42,386.573 1515.5,386.5C 1516.46,409.14 1516.79,431.807 1516.5,454.5C 1459.98,457.153 1415.81,435.486 1384,389.5C 1375.03,374.241 1369.03,357.907 1366,340.5C 1364.55,294.189 1364.05,247.856 1364.5,201.5C 1340.5,201.5 1316.5,201.5 1292.5,201.5C 1292.5,178.833 1292.5,156.167 1292.5,133.5C 1316.5,133.5 1340.5,133.5 1364.5,133.5C 1364.94,88.8343 1365.28,44.1677 1365.5,-0.5 Z"/></g>
<g><path style="opacity:0.987" fill="#4DA88A" d="M 1631.5,-0.5 C 1654.17,-0.5 1676.83,-0.5 1699.5,-0.5C 1699.5,44.1667 1699.5,88.8333 1699.5,133.5C 1723.17,133.5 1746.83,133.5 1770.5,133.5C 1770.5,156.167 1770.5,178.833 1770.5,201.5C 1746.83,201.5 1723.17,201.5 1699.5,201.5C 1699.33,244.168 1699.5,286.835 1700,329.5C 1706.81,358.981 1724.98,377.148 1754.5,384C 1763.76,385.677 1773.09,386.51 1782.5,386.5C 1782.5,409.167 1782.5,431.833 1782.5,454.5C 1724.08,457.209 1679.24,434.209 1648,385.5C 1640.07,370.707 1634.74,355.041 1632,338.5C 1630.66,292.844 1630.16,247.178 1630.5,201.5C 1606.83,201.5 1583.17,201.5 1559.5,201.5C 1559.5,178.833 1559.5,156.167 1559.5,133.5C 1583.5,133.5 1607.5,133.5 1631.5,133.5C 1631.5,88.8333 1631.5,44.1667 1631.5,-0.5 Z"/></g>
<g><path style="opacity:0.986" fill="#4DA88A" d="M 765.5,0.5 C 788.167,0.5 810.833,0.5 833.5,0.5C 833.5,152.167 833.5,303.833 833.5,455.5C 810.833,455.5 788.167,455.5 765.5,455.5C 765.5,303.833 765.5,152.167 765.5,0.5 Z"/></g>
<g><path style="opacity:0.986" fill="#4DA88A" d="M 2937.5,121.5 C 2980.89,118.8 3020.06,130.133 3055,155.5C 3055.5,148.174 3055.67,140.841 3055.5,133.5C 3078.17,133.5 3100.83,133.5 3123.5,133.5C 3123.5,239.833 3123.5,346.167 3123.5,452.5C 3100.83,452.5 3078.17,452.5 3055.5,452.5C 3055.67,444.16 3055.5,435.827 3055,427.5C 3018.41,454.943 2977.24,466.11 2931.5,461C 2863.23,450.045 2816.4,412.545 2791,348.5C 2769.59,276.648 2785.75,214.815 2839.5,163C 2867.9,139.142 2900.57,125.309 2937.5,121.5 Z M 2941.5,189.5 C 2993.19,188.058 3029.02,211.058 3049,258.5C 3062.77,310.084 3047.6,350.584 3003.5,380C 2964.42,399.936 2926.75,397.603 2890.5,373C 2851.59,339.249 2841.09,298.082 2859,249.5C 2876.29,215.44 2903.79,195.44 2941.5,189.5 Z"/></g>
<g><path style="opacity:0.986" fill="#4DA88A" d="M 2019.5,465.5 C 2009.83,465.5 2000.17,465.5 1990.5,465.5C 1923.6,457.774 1875.77,423.441 1847,362.5C 1823.68,301.1 1831.01,243.766 1869,190.5C 1911.12,140.116 1964.96,118.949 2030.5,127C 2092.23,138.418 2136.06,172.585 2162,229.5C 2167.22,242.399 2170.89,255.732 2173,269.5C 2174.38,289.469 2174.88,309.469 2174.5,329.5C 2085.83,329.5 1997.17,329.5 1908.5,329.5C 1922.14,366.631 1948.47,388.798 1987.5,396C 2026.12,400.766 2058.29,388.6 2084,359.5C 2101.33,373.5 2118.67,387.5 2136,401.5C 2135.6,403.631 2134.6,405.631 2133,407.5C 2102.56,441.303 2064.73,460.637 2019.5,465.5 Z M 1991.5,193.5 C 2046.7,191.055 2083.7,215.722 2102.5,267.5C 2036.83,268.833 1971.17,268.833 1905.5,267.5C 1919.77,225.885 1948.44,201.218 1991.5,193.5 Z"/></g>
<g><path style="opacity:0.986" fill="#4DA88A" d="M 921.5,131.5 C 944.167,131.5 966.833,131.5 989.5,131.5C 989.5,211.833 989.5,292.167 989.5,372.5C 1047.83,361.166 1106.17,349.833 1164.5,338.5C 1164.5,269.5 1164.5,200.5 1164.5,131.5C 1187.17,131.5 1209.83,131.5 1232.5,131.5C 1232.5,238.833 1232.5,346.167 1232.5,453.5C 1209.83,453.5 1187.17,453.5 1164.5,453.5C 1164.5,438.167 1164.5,422.833 1164.5,407.5C 1083.48,423.038 1002.48,438.705 921.5,454.5C 921.5,346.833 921.5,239.167 921.5,131.5 Z"/></g>
<g><path style="opacity:0.988" fill="#4DA88A" d="M 2241.5,131.5 C 2264.17,131.5 2286.83,131.5 2309.5,131.5C 2309.5,144.167 2309.5,156.833 2309.5,169.5C 2360.84,156.832 2412.17,144.165 2463.5,131.5C 2463.5,154.167 2463.5,176.833 2463.5,199.5C 2412.16,212.168 2360.83,224.835 2309.5,237.5C 2309.5,309.167 2309.5,380.833 2309.5,452.5C 2286.83,452.5 2264.17,452.5 2241.5,452.5C 2241.5,345.5 2241.5,238.5 2241.5,131.5 Z"/></g>
<g><path style="opacity:0.988" fill="#4DA88A" d="M 2524.5,131.5 C 2547.17,131.5 2569.83,131.5 2592.5,131.5C 2592.5,144.167 2592.5,156.833 2592.5,169.5C 2643.84,156.832 2695.17,144.165 2746.5,131.5C 2746.5,154.167 2746.5,176.833 2746.5,199.5C 2695.16,212.168 2643.83,224.835 2592.5,237.5C 2592.5,309.167 2592.5,380.833 2592.5,452.5C 2569.83,452.5 2547.17,452.5 2524.5,452.5C 2524.5,345.5 2524.5,238.5 2524.5,131.5 Z"/></g>
<g><path style="opacity:0.983" fill="#4DA88A" d="M -0.5,253.5 C -0.5,251.167 -0.5,248.833 -0.5,246.5C 24.6163,209.64 49.283,172.307 73.5,134.5C 96.4928,133.334 119.493,133.167 142.5,134C 105.874,178.509 93.0405,229.342 104,286.5C 110.887,315.107 123.72,340.607 142.5,363C 120.5,363.667 98.5,363.667 76.5,363C 51.9629,328.094 27.7962,292.927 4,257.5C 2.69266,255.808 1.19266,254.475 -0.5,253.5 Z"/></g>
<g><path style="opacity:0.988" fill="#4DA88A" d="M 173.5,133.5 C 232.5,133.5 291.5,133.5 350.5,133.5C 350.5,154.167 350.5,174.833 350.5,195.5C 313.832,195.333 277.165,195.5 240.5,196C 224.631,251.94 232.798,303.773 265,351.5C 268.167,355.333 271.333,359.167 274.5,363C 239.5,363.667 204.5,363.667 169.5,363C 165.426,359.376 161.926,355.21 159,350.5C 119.135,282.98 119.802,215.646 161,148.5C 165.378,143.627 169.545,138.627 173.5,133.5 Z"/></g>
<g><path style="opacity:0.994" fill="#4DA88A" d="M 3172.5,133.5 C 3235.17,133.333 3297.83,133.5 3360.5,134C 3333.78,155.05 3306.78,175.717 3279.5,196C 3243.83,196.5 3208.17,196.667 3172.5,196.5C 3172.5,175.5 3172.5,154.5 3172.5,133.5 Z"/></g>
<g><path style="opacity:0.988" fill="#4DA88A" d="M 3409.5,140.5 C 3473.94,168.056 3538.61,195.056 3603.5,221.5C 3603.67,240.836 3603.5,260.17 3603,279.5C 3539.36,307.737 3475.52,335.571 3411.5,363C 3331.83,363.5 3252.17,363.667 3172.5,363.5C 3172.5,345.833 3172.5,328.167 3172.5,310.5C 3230.5,311.39 3288.5,311.557 3346.5,311C 3364.55,291.285 3382.22,271.285 3399.5,251C 3372.68,236.758 3345.68,222.758 3318.5,209C 3348.73,185.919 3379.07,163.085 3409.5,140.5 Z"/></g>
<g><path style="opacity:0.907" fill="#4DA88A" d="M 3668.5,249.5 C 3668.5,249.833 3668.5,250.167 3668.5,250.5C 3652.27,258.95 3636.27,267.95 3620.5,277.5C 3619.91,277.291 3619.41,276.957 3619,276.5C 3618.17,260.49 3618.33,244.49 3619.5,228.5C 3635.78,235.701 3652.11,242.701 3668.5,249.5 Z"/></g>
</svg>
